<svg xmlns="http://www.w3.org/2000/svg" xmlns:xlink="http://www.w3.org/1999/xlink" width="200" height="200" viewBox="0 0 200 200"><title>Lab Veteran sticker</title><defs><path id="name-arc" d="M 34 104 A 66 66 0 0 0 166 104"></path></defs><circle fill="#ffffff" cx="100" cy="100" r="97"></circle><circle cx="100" cy="100" r="87" fill="#f2cd00"></circle><circle cx="100" cy="100" r="80" fill="none" stroke="#173622" stroke-opacity="0.25" stroke-width="1.5" stroke-dasharray="2 5"></circle><g><path d="M70 40 H94 M76 40 V70 L54 116 Q52 122 58 122 H106 Q112 122 110 116 L88 70 V40" fill="none" stroke-linecap="round" stroke-linejoin="round" stroke="#173622" stroke-width="6"></path><path d="M64 100 H100 L108 118 H58 Z" fill="#275d38"></path><circle cx="74" cy="108" r="3" fill="#ffffff"></circle><circle cx="86" cy="100" r="2.5" fill="#ffffff"></circle><path d="M118 96 A22 22 0 0 1 158 96" fill="none" stroke-linecap="round" stroke-linejoin="round" stroke="#173622" stroke-width="6"></path><path d="M138 96 L150 80" fill="none" stroke-linecap="round" stroke-linejoin="round" stroke="#275d38" stroke-width="5"></path><circle cx="138" cy="96" r="5" fill="#173622"></circle></g><text fill="#173622" font-size="13.5" font-weight="800" letter-spacing="1.4" font-family="Inter, ui-sans-serif, system-ui, sans-serif"><textPath href="#name-arc" xlink:href="#name-arc" startOffset="50%" text-anchor="middle">LAB VETERAN</textPath></text></svg>
